<svg xmlns="http://www.w3.org/2000/svg" version="1.1" xmlns:xlink="http://www.w3.org/1999/xlink" width="512" height="512" x="0" y="0" viewBox="0 0 100 100" style="enable-background:new 0 0 512 512" xml:space="preserve" class=""><g transform="matrix(-1,0,0,1,100,0)"><path fill="#8a7c8a" fill-rule="evenodd" d="M32.9 59.8c-5.4 0-9.1 0-11.2 6.1-3.4-2.9-10.9-.7-10.5 6.1-2 0-6.2.6-6.2 7.7 6.7 3.7 17.5 3.6 22.5 1.4 5.6-2.4 7.8-10.6 5.4-21.3zM20.1 42.9c1.6-1.1 2.5-2.8 2.7-4.7l1.7-6.2-5.4-2.3c-4.3-3.1-9.5 1-8 5.8-1.2-.8-2.8-.9-4-.2-1.3.7-2.1 2.1-2 3.5 0 1.5.9 3.1 2.2 3.8C5.9 43.7 5 45.2 5 47c0 2.9 2.4 5.3 5.3 5.3s5.3-2.4 5.3-5.3c0-1.1-.4-2.2-1-3.1 1.9.5 3.9.1 5.5-1z" clip-rule="evenodd" opacity="1" data-original="#8a7c8a"></path><path fill="#b5b6c4" d="M48.4 35.1c-.4-.9 0-2 .9-2.4s2 0 2.4.9l5.8 12.8c.4.9 0 2-.9 2.4s-2 0-2.4-.9z" opacity="1" data-original="#b5b6c4"></path><g fill-rule="evenodd" clip-rule="evenodd"><path fill="#f17171" d="m50 34.4 7.4-3.2L49.2 12c-.6-1.4-2.3-2.1-3.7-1.5L18.8 22.1c-1.4.6-2.1 2.3-1.5 3.7l1.8 4 3.7 8.5 2.9 6.7z" opacity="1" data-original="#f17171"></path><path fill="#aaa0aa" d="M42.6 44.9H25.7v7.9h13.1zM65 52.8v-7.9H42.6l5.6 7.9z" opacity="1" data-original="#aaa0aa"></path><path fill="#fec148" d="M95 89.7V59.8H32.9c0 17.7-11.2 19.9-24.3 19.9H5v10h31.9z" opacity="1" data-original="#fec148"></path><path fill="#d15e5e" d="M42.5 14.9 50.8 34l6.7-2.9L49.2 12c-.6-1.4-2.3-2.1-3.7-1.5l-6.7 2.9c1.4-.6 3.1 0 3.7 1.5z" opacity="1" data-original="#d15e5e"></path><path fill="#918891" d="M57.5 44.9h9.4v7.9h-9.4z" opacity="1" data-original="#918891"></path><path fill="#e3ad42" d="M85.6 59.8H95v29.9h-9.4z" opacity="1" data-original="#e3ad42"></path></g><path fill="#fee97e" d="M87.1 83.3c-1 0-1.8-.8-1.8-1.8s.8-1.8 1.8-1.8 1.8.8 1.8 1.8-.8 1.8-1.8 1.8zM33.1 83.4c-1 0-1.8-.8-1.8-1.8s.8-1.8 1.8-1.8 1.8.8 1.8 1.8-.8 1.8-1.8 1.8zM44.5 71.3c-1 0-1.8-.8-1.8-1.8s.8-1.8 1.8-1.8 1.8.8 1.8 1.8-.8 1.8-1.8 1.8z" opacity="1" data-original="#fee97e"></path><path fill="#e8e8e8" d="M28.5 28.5c-.9.4-2 0-2.4-.9s0-2 1-2.4l15-6.5c.9-.4 2 0 2.4.9s0 2-1 2.4zM31.6 35.7c-.9.4-2 0-2.4-.9s0-2 1-2.4l15-6.5c.9-.4 2 0 2.4.9s0 2-1 2.4z" opacity="1" data-original="#e8e8e8"></path><path fill="#fee97e" d="M77.3 72.5c-1 0-1.8-.8-1.8-1.8s.8-1.8 1.8-1.8 1.8.8 1.8 1.8-.8 1.8-1.8 1.8zM55.5 80c-1 0-1.8-.8-1.8-1.8s.8-1.8 1.8-1.8 1.8.8 1.8 1.8-.8 1.8-1.8 1.8zM73 81.5c-1 0-1.8-.8-1.8-1.8s.8-1.8 1.8-1.8 1.8.8 1.8 1.8-.8 1.8-1.8 1.8z" opacity="1" data-original="#fee97e"></path><path fill="#f17171" fill-rule="evenodd" d="M95 43.2v-7.6L81.5 30 76 19H65v33.8h30z" clip-rule="evenodd" opacity="1" data-original="#f17171"></path><path fill="#c9ebfa" fill-rule="evenodd" d="m95 35.5-2.7-10.9c-.7-3-2.6-5.7-5.7-5.7H76v16.6z" clip-rule="evenodd" opacity="1" data-original="#c9ebfa"></path><path fill="#b1d4e3" fill-rule="evenodd" d="m82.9 24.7 2.7 10.9H95l-2.7-10.9c-.7-3-2.6-5.7-5.7-5.7h-9.4c3.2 0 5 2.6 5.7 5.7z" clip-rule="evenodd" opacity="1" data-original="#b1d4e3"></path><path fill="#d15e5e" fill-rule="evenodd" d="M85.6 35.5v11.9l1.9 4.9c.1.1 0 .3 0 .5H95V35.5z" clip-rule="evenodd" opacity="1" data-original="#d15e5e"></path><path fill="#fee97e" d="M90.6 45c-1 0-1.8-.8-1.8-1.8s.8-1.8 1.8-1.8H95V45z" opacity="1" data-original="#fee97e"></path><path fill="#dadbe2" fill-rule="evenodd" d="M87.5 52.3c0-4.1-3.3-7.4-7.4-7.4s-7.4 3.3-7.4 7.4v.5c.2 3.9 3.5 7 7.4 7 4 0 7.2-3.1 7.4-7-.1-.1 0-.3 0-.5z" clip-rule="evenodd" opacity="1" data-original="#dadbe2"></path><path fill="#8a7c8a" d="M80 54.2c-1 0-1.8-.8-1.8-1.8s.8-1.8 1.8-1.8 1.8.8 1.8 1.8-.8 1.8-1.8 1.8z" opacity="1" data-original="#8a7c8a"></path><path fill="#dadbe2" fill-rule="evenodd" d="M50 52.3c0-4.1-3.3-7.4-7.4-7.4s-7.4 3.3-7.4 7.4v.5c.2 3.9 3.5 7 7.4 7s7.2-3.1 7.4-7v-.5z" clip-rule="evenodd" opacity="1" data-original="#dadbe2"></path><path fill="#8a7c8a" d="M42.6 54.2c-1 0-1.8-.8-1.8-1.8s.8-1.8 1.8-1.8 1.8.8 1.8 1.8-.8 1.8-1.8 1.8z" opacity="1" data-original="#8a7c8a"></path></g></svg>