<svg xmlns="http://www.w3.org/2000/svg" version="1.1" xmlns:xlink="http://www.w3.org/1999/xlink" width="512" height="512" x="0" y="0" viewBox="0 0 100 100" style="enable-background:new 0 0 512 512" xml:space="preserve" class=""><g transform="matrix(-1,0,0,1,96.79999828338623,0)"><path d="M85.7 43.4c0-1 .8-1.8 1.8-1.8h5.8v-6l-2.6-10.5c-1-4.2-3.7-6.7-7-6.7H62.8c-.9 0-1.6.7-1.6 1.6v23.5h-7.3l-3.5-7.8 5.7-2.5c.8-.3 1.2-1.3.8-2.1l-8-18.5c-.5-1-1.3-1.9-2.3-2.3-1.1-.4-2.2-.4-3.3.1L17.6 21.6c-1 .5-1.9 1.3-2.3 2.3-.4 1.1-.4 2.2.1 3.3l.3.7c-1.4-.1-2.7.3-3.9 1.2-1.7 1.2-2.6 2.9-2.8 4.8-1-.1-2 .2-2.9.6-1.7 1-2.8 2.8-2.8 4.8 0 1.4.6 2.7 1.4 3.7-.9 1.2-1.4 2.6-1.4 4.1a6.7 6.7 0 0 0 13.4 0c0-.4 0-.8-.1-1.3 1.3-.1 2.6-.6 3.7-1.4.7-.5 1.3-1.1 1.8-1.7l1.2 2.7v7.3c0 .9.7 1.6 1.6 1.6h7.8c.3 1.3.9 2.6 1.8 3.6h-2.7c-4.8 0-9.1 0-11.6 5.2-2-.8-4.4-.7-6.5.4-2.5 1.2-4 3.6-4.3 6.3-1.5.2-2.7.8-3.7 1.8-1.5 1.5-2.3 3.9-2.3 7v9.7c0 .9.7 1.6 1.6 1.6h86.9c.9 0 1.6-.7 1.6-1.6V59.4c0-.9-.7-1.6-1.6-1.6h-7.8c.9-1 1.5-2.3 1.8-3.6h6c.9 0 1.6-.7 1.6-1.6v-7.5h-5.8c-1.2.1-2-.7-2-1.7zm-8.4 3.3c3.1 0 5.6 2.5 5.6 5.6s-2.5 5.6-5.6 5.6-5.6-2.5-5.6-5.6c-.1-3.1 2.5-5.6 5.6-5.6zm-14.5 7.6h6c.3 1.3.9 2.6 1.8 3.6H47.8c.9-1 1.5-2.3 1.8-3.6zM18.2 26c-.1-.3-.1-.6 0-.9s.3-.5.6-.6l25.7-11.1c.1-.1.3-.1.5-.1.1 0 .3 0 .4.1.3.1.5.3.6.6l7.4 17-27.8 12zm14.1 17.5 15.2-6.6 3 6.6zm14.4 8.8c0 3.1-2.5 5.6-5.6 5.6s-5.6-2.5-5.6-5.6 2.5-5.6 5.6-5.6 5.6 2.5 5.6 5.6zM90.2 61v25.8H6.4v-6.6h1.9c12.6 0 24.3-2.4 25-19.2zM74.9 34.5V21.6h8.7c2.6 0 3.6 2.7 4 4.3l2.1 8.5H74.9z" fill="#8a9199" opacity="1" data-original="#000000" class=""></path><path d="M39.5 52.3c0 .9.7 1.6 1.6 1.6s1.6-.7 1.6-1.6-.7-1.6-1.6-1.6c-.9 0-1.6.7-1.6 1.6zM84.1 82c.9 0 1.6-.7 1.6-1.6s-.7-1.6-1.6-1.6c-.9 0-1.6.7-1.6 1.6s.7 1.6 1.6 1.6zM32 78.9c-.9 0-1.6.7-1.6 1.6S31.1 82 32 82s1.6-.7 1.6-1.6-.7-1.5-1.6-1.5zM43 70.4c.9 0 1.6-.7 1.6-1.6s-.7-1.6-1.6-1.6c-.9 0-1.6.7-1.6 1.6s.7 1.6 1.6 1.6zM42.8 20.7c-.3-.8-1.3-1.2-2.1-.8l-14.5 6.3c-.8.3-1.2 1.3-.8 2.1.3.6.8.9 1.4.9.2 0 .4 0 .6-.1l14.5-6.3c.8-.4 1.2-1.3.9-2.1zM43.7 26.9l-14.5 6.3c-.8.3-1.2 1.3-.8 2.1.3.6.8.9 1.4.9.2 0 .4 0 .6-.1L45 29.7c.8-.3 1.2-1.3.8-2.1-.4-.7-1.3-1.1-2.1-.7zM74.6 71.5c.9 0 1.6-.7 1.6-1.6s-.7-1.6-1.6-1.6c-.9 0-1.6.7-1.6 1.6s.7 1.6 1.6 1.6zM53.6 78.7c.9 0 1.6-.7 1.6-1.6s-.7-1.6-1.6-1.6c-.9 0-1.6.7-1.6 1.6s.8 1.6 1.6 1.6zM70.5 80.2c.9 0 1.6-.7 1.6-1.6s-.7-1.6-1.6-1.6c-.9 0-1.6.7-1.6 1.6s.7 1.6 1.6 1.6zM77.3 53.8c.9 0 1.6-.7 1.6-1.6s-.7-1.6-1.6-1.6c-.9 0-1.6.7-1.6 1.6s.7 1.6 1.6 1.6z" fill="#8a9199" opacity="1" data-original="#000000" class=""></path></g></svg>